<svg width="1053" height="1484" viewBox="0 0 1053 1484" fill="none" xmlns="http://www.w3.org/2000/svg">
<path d="M250.211 722C250.216 723.508 250.222 725.016 250.228 726.57C250.373 763.376 250.558 800.181 250.786 836.987C250.895 854.787 250.992 872.586 251.056 890.385C251.113 905.912 251.194 921.437 251.306 936.963C251.364 945.173 251.406 953.383 251.425 961.593C251.449 970.791 251.518 979.987 251.596 989.184C251.593 991.864 251.589 994.543 251.586 997.304C252.101 1040.17 267.507 1079.18 296.654 1110.63C324.648 1137.32 364.076 1152.75 398.373 1169.69C440.551 1190.56 482.282 1212.15 523.696 1234.5C535.386 1238.74 544.409 1235.51 555.365 1230.51C559.06 1228.72 562.745 1226.91 566.42 1225.08C568.415 1224.11 570.409 1223.13 572.463 1222.13C576.689 1220.06 580.909 1217.99 585.126 1215.9C591.427 1212.78 597.74 1209.69 604.057 1206.61C625.659 1196.03 647.094 1185.18 668.293 1173.81C679.688 1167.69 691.198 1161.85 702.786 1156.11C708.995 1153.02 715.2 1149.91 721.402 1146.8C723.894 1145.56 726.387 1144.31 728.955 1143.02C771.619 1120.79 797.768 1088.1 812.497 1042.43C818.529 1022.58 819.431 1003.15 819.559 982.568C819.584 980.136 819.608 977.704 819.633 975.199C819.709 967.22 819.77 959.242 819.831 951.263C819.881 945.708 819.932 940.153 819.984 934.598C820.119 920.02 820.24 905.443 820.358 890.866C820.48 875.973 820.616 861.08 820.751 846.187C821.013 816.999 821.261 787.81 821.5 758.621C831.304 760.149 839.613 762.086 848.717 766.06C851.132 767.1 853.547 768.141 856.034 769.213C859.937 770.919 859.937 770.919 863.919 772.659C869.62 775.112 875.323 777.56 881.028 780.002C883.268 780.963 883.268 780.963 885.554 781.943C903.373 789.56 921.333 796.827 939.297 804.092C942.613 805.435 945.928 806.778 949.244 808.122C955.686 810.731 962.128 813.338 968.572 815.944C982.165 821.442 995.754 826.948 1009.34 832.474C1011.58 833.379 1013.82 834.284 1016.12 835.217C1019.14 836.446 1019.14 836.446 1022.22 837.7C1023.96 838.405 1025.7 839.111 1027.49 839.838C1031.46 841.629 1031.46 841.629 1033.9 844.07C1034.17 850.003 1034.29 855.868 1034.3 861.803C1034.31 863.662 1034.32 865.52 1034.33 867.435C1034.37 873.631 1034.38 879.827 1034.4 886.022C1034.41 890.347 1034.43 894.672 1034.44 898.997C1034.47 908.108 1034.48 917.219 1034.49 926.33C1034.5 937.884 1034.56 949.436 1034.63 960.99C1034.68 969.953 1034.69 978.916 1034.69 987.88C1034.7 992.13 1034.72 996.38 1034.75 1000.63C1035.02 1039 1030.8 1075.96 1019.41 1112.78C1018.69 1115.09 1017.98 1117.39 1017.24 1119.77C998.373 1177.81 968.466 1225.33 926.48 1268.88C923.412 1272.22 923.412 1272.22 920.281 1275.63C866.022 1333 786.672 1364.24 716.533 1397.48C694.341 1408.03 672.395 1419.07 650.438 1430.1C622.408 1444.18 594.245 1457.95 565.839 1471.25C562.131 1473.05 558.466 1474.94 554.852 1476.92C553.165 1477.84 551.479 1478.76 549.741 1479.71C548.29 1480.54 546.839 1481.37 545.344 1482.23C533.689 1486 522.9 1478.89 512.69 1473.71C511.175 1472.95 509.659 1472.19 508.097 1471.4C503.254 1468.96 498.421 1466.5 493.588 1464.03C490.447 1462.45 487.304 1460.86 484.161 1459.27C477.748 1456.03 471.338 1452.79 464.93 1449.54C430.189 1431.94 395.24 1414.76 360.276 1397.6C351.705 1393.4 343.136 1389.19 334.568 1384.98C296.594 1366.32 296.594 1366.32 258.325 1348.28C217.035 1329.13 181.203 1303.72 148.612 1272.14C145.696 1269.32 142.735 1266.55 139.766 1263.79C85.5218 1212.16 54.1205 1138.72 40.2496 1066.24C39.6536 1063.59 39.6536 1063.59 39.0455 1060.9C33.9228 1035.38 34.7532 1009.78 34.8899 983.879C34.8991 978.776 34.906 973.672 34.9109 968.569C34.9294 955.228 34.9773 941.887 35.0315 928.546C35.0817 914.896 35.1038 901.246 35.1284 887.596C35.1805 860.88 35.2637 834.165 35.3668 807.449C68.6978 791.891 68.6978 791.891 83.8707 786.011C88.0656 784.375 88.0656 784.375 92.3452 782.707C96.6192 781.057 96.6192 781.057 100.98 779.373C106.994 777.031 113.009 774.688 119.023 772.344C121.867 771.239 124.71 770.134 127.64 768.996C137.288 765.234 146.912 761.414 156.522 757.553C159.02 756.549 161.519 755.545 164.094 754.511C166.731 753.45 169.368 752.39 172.086 751.297C175.945 749.755 179.804 748.213 183.663 746.671C192.249 743.239 200.825 739.782 209.393 736.305C213.64 734.588 217.887 732.872 222.134 731.155C224.312 730.268 226.49 729.38 228.734 728.466C231.849 727.21 235.028 725.929 235.028 725.929L240.679 723.638C240.679 723.638 245.328 722 250.211 722Z" fill="#172940"/>
<path d="M1033.76 657.334L821.758 563V759.5L1033.76 847V657.334Z" fill="#172940"/>
<path d="M34.7578 718.334L250.758 624V820.654H34.7578V718.334Z" fill="#ED9036"/>
<circle cx="125.758" cy="417" r="125" fill="#172940"/>
<circle cx="927.758" cy="417" r="125" fill="#EF9439"/>
<path d="M308.76 547.302L759.76 868.132V923.505C759.76 974.763 733.054 1022.32 689.287 1049L546.389 1136.1C542.069 1138.73 536.654 1138.79 532.283 1136.24L381.753 1048.56C336.558 1022.23 308.76 973.868 308.76 921.565V547.302Z" fill="#FFC58D"/>
<path d="M759.758 771.372L308.758 450.543L308.759 216.866C308.76 165.609 335.465 118.056 379.232 91.3773L522.13 4.27362C526.45 1.64056 531.865 1.58649 536.237 4.13275L686.766 91.8155C731.962 118.142 759.76 166.504 759.76 218.808L759.758 771.372Z" fill="#EF9137"/>
</svg>
