<svg width="21" height="20" viewBox="0 0 21 20" fill="none" xmlns="http://www.w3.org/2000/svg">
<path d="M20.1 10.5001C20.0992 5.39334 16.1005 1.18106 11.0008 0.914646C5.90102 0.648234 1.48527 4.42095 0.952373 9.49979C0.419474 14.5786 3.95597 19.1857 8.99996 19.9837L8.99996 13.2751H6.56276V10.5001H8.99996V8.38506C8.99996 5.97906 10.4334 4.65006 12.6258 4.65006C13.3458 4.66005 14.0641 4.72261 14.775 4.83726V7.20006L13.5642 7.20006C13.1462 7.14455 12.7257 7.28214 12.4214 7.57396C12.1171 7.86578 11.962 8.28015 12 8.70006V10.5001H14.6628L14.2368 13.2751H12L12 19.9837C16.6654 19.2456 20.1007 15.2235 20.1 10.5001Z" fill="#2E6FE8"/>
</svg>
