<svg width="19" height="19" viewBox="0 0 19 19" fill="none" xmlns="http://www.w3.org/2000/svg">
<path d="M17.3 0.5L1.7 0.5C1.03726 0.5 0.5 1.03726 0.5 1.7L0.5 17.3C0.5 17.9627 1.03726 18.5 1.7 18.5L17.3 18.5C17.9627 18.5 18.5 17.9627 18.5 17.3L18.5 1.7C18.5 1.03726 17.9627 0.5 17.3 0.5ZM5.8322 15.8564L3.1244 15.8564L3.1244 7.25H5.8322L5.8322 15.8564ZM4.478 6.0686C3.60878 6.06595 2.90604 5.35963 2.9078 4.49041C2.90957 3.62119 3.61517 2.91773 4.4844 2.91861C5.35362 2.91949 6.0578 3.62438 6.0578 4.4936C6.05796 4.9122 5.89142 5.31363 5.59497 5.60917C5.29853 5.90471 4.8966 6.07004 4.478 6.0686ZM15.8726 15.8564H13.22V11.6936C13.22 10.6814 13.22 9.4436 11.81 9.4436C10.4 9.4436 10.2302 10.5128 10.2302 11.6372V15.9128H7.58L7.58 7.25L10.0616 7.25V8.4314H10.118C10.6395 7.52974 11.6156 6.98898 12.6566 7.025C15.3644 7.025 15.872 8.825 15.872 11.1314L15.8726 15.8564Z" fill="#2148A5"/>
</svg>
