<svg width="21" height="17" viewBox="0 0 21 17" fill="none" xmlns="http://www.w3.org/2000/svg">
<path d="M20.1 2.55995C19.38 2.85995 18.66 3.09995 17.82 3.15995C18.66 2.67995 19.26 1.89995 19.56 0.999951C18.78 1.47995 17.94 1.77995 17.04 1.95995C16.32 1.17995 15.3 0.699951 14.22 0.699951C12.06 0.699951 10.26 2.43995 10.26 4.65995C10.26 4.95995 10.32 5.25995 10.38 5.55995C7.07997 5.37995 4.19997 3.81995 2.21997 1.41995C1.85997 2.01995 1.67997 2.67995 1.67997 3.39995C1.67997 4.77995 2.39997 5.97995 3.41997 6.69995C2.75997 6.69995 2.15997 6.51995 1.61997 6.21995V6.27995C1.61997 8.19995 2.99997 9.75995 4.79997 10.12C4.43997 10.18 4.13997 10.24 3.77997 10.24C3.53997 10.24 3.29997 10.24 3.05997 10.18C3.53997 11.74 5.03997 12.88 6.71997 12.94C5.39997 14.02 3.65997 14.62 1.79997 14.62C1.49997 14.62 1.13997 14.62 0.839966 14.56C2.63997 15.64 4.73997 16.3 6.95997 16.3C14.22 16.3 18.18 10.3 18.18 5.07995C18.18 4.89995 18.18 4.71995 18.18 4.59995C18.9 3.99995 19.56 3.33995 20.1 2.55995Z" fill="#2EBAE8"/>
</svg>
