<svg width="21" height="15" viewBox="0 0 21 15" fill="none" xmlns="http://www.w3.org/2000/svg">
<path d="M19.92 3.65997C19.92 3.65997 19.74 2.33997 19.14 1.73997C18.42 0.959971 17.58 0.959971 17.22 0.899971C14.52 0.719971 10.5 0.719971 10.5 0.719971C10.5 0.719971 6.48002 0.719971 3.78002 0.899971C3.42002 0.959971 2.58002 0.959971 1.86002 1.73997C1.26002 2.33997 1.08002 3.65997 1.08002 3.65997C1.08002 3.65997 0.900024 5.21997 0.900024 6.77997L0.900024 8.21997C0.900024 9.77997 1.08002 11.34 1.08002 11.34C1.08002 11.34 1.26002 12.66 1.86002 13.26C2.58002 14.04 3.54002 13.98 3.96002 14.1C5.52002 14.22 10.5 14.28 10.5 14.28C10.5 14.28 14.52 14.28 17.22 14.1C17.58 14.04 18.42 14.04 19.14 13.26C19.74 12.66 19.92 11.34 19.92 11.34C19.92 11.34 20.1 9.77997 20.1 8.21997L20.1 6.77997C20.1 5.21997 19.92 3.65997 19.92 3.65997ZM8.52002 10.02L8.52002 4.61997L13.68 7.31997L8.52002 10.02Z" fill="#E82E2E"/>
</svg>
